<?xml version="1.0" encoding="utf-8"?>
<!-- Generator: Adobe Illustrator 22.0.0, SVG Export Plug-In . SVG Version: 6.00 Build 0)  -->
<svg version="1.1" id="Calque_1" xmlns="http://www.w3.org/2000/svg" xmlns:xlink="http://www.w3.org/1999/xlink" x="0px" y="0px"
	 viewBox="0 0 326.2 57.8" style="enable-background:new 0 0 326.2 57.8;" xml:space="preserve">
<style type="text/css">
	.st0{fill:#1520F9;}
</style>
<g>
	<path class="st0" d="M104.9,23c1.2,0.5,1.9,1.4,2.1,2.3c0.1,0.4-0.1,0.7-0.6,0.6c-0.8-0.2-1.9-0.2-3-0.2C101.6,29.2,99.7,33,98,37
		c-0.2,0.5-0.6,0.6-0.9,0.1c-0.7-1.1-1.2-2.6-0.2-5.8c0.4-1.1,1.2-2.9,2.2-5.1c-3.9,0.5-7.9,1.2-10.4,1.2c-1.6,3.3-3.3,6.8-4.8,10.3
		c-0.2,0.5-0.6,0.7-1,0.2c-0.8-1.1-1.2-2.6-0.3-5.8c0.3-1.1,1.2-3,2.3-5.4c-1.2-0.5-1.6-1.3-1.8-1.7c-0.3-0.6-0.2-0.8,0.7-0.8
		c0.8,0.1,1.5,0.2,2.2,0.2c3.4-7,8.3-16.2,10.5-19.3c0.5-0.6,1-0.5,1.3,0.1c0.8,1.5,0.6,4.1-1.3,7.8c-1.5,3-3.7,6.7-6,11.1
		c3.7-0.5,6.9-1.4,10.4-1.6c3.4-6.8,8.1-15.2,10.2-18.1c0.5-0.7,1-0.6,1.3,0.1c0.7,1.5,0.6,4-1.6,8C109.2,15.4,107.1,18.9,104.9,23z
		"/>
	<path class="st0" d="M114.3,36.4c4.4,0.2,8.3-4,10.5-7.5c0.3-0.4,0.7-0.4,0.9,0.1c0.2,0.4,0.1,1.9-0.9,3.3
		c-2.2,3.2-6.3,5.7-10.4,5.7c-6.7,0.1-9.1-6.5-5.6-13.3c3.4-6.8,8.8-9.6,11.5-8c1.3,0.8,2.3,1.6,3.1,2.8c1,1.3,0.5,4.5-1.7,7.2
		c-2.6,3.2-6.1,4.6-9.8,1.5C110.3,32.9,111.5,36.3,114.3,36.4z M118.7,24.3c1.7-2.2,2.9-5,2.1-5.6c-1.1-0.9-5.5,2.3-8,7.3
		c-0.2,0.3-0.3,0.6-0.4,0.9C115,28.5,117.2,26.3,118.7,24.3z"/>
	<path class="st0" d="M134.3,39.1c-3,7.1-6.7,15.6-11.1,17.3c-1,0.4-2,0.4-3-1.1c-1.1-1.6-2.1-3.4-1.1-6.6c1.6-4.8,6.1-7.9,11.3-10
		c0.5-1.2,1.1-2.5,1.6-3.8c-1.6,1.7-3.7,3.1-5.8,2.9c-3.8-0.3-3.9-4.2-2.7-7.7c1.2-3.4,3.8-8.6,7.2-13.4c0.4-0.6,1-0.5,1.3,0
		c1.3,1.7,1,3.9-1,7c-1.9,3.1-3.1,5.2-4.1,7.7c-1.1,2.6-1,4.4,0.3,4.6c2.1,0.2,4.7-3.2,7.4-7.8c2.3-3.9,4.6-8.7,6.4-11.4
		c0.5-0.7,0.8-0.8,1.3-0.4c0.7,1,1.2,3.2-0.2,5.9c-1.6,3.1-4.8,9.4-7,14.6c4.1-2.2,7.3-5.2,9.4-8.2c0.3-0.4,0.7-0.4,0.8,0.1
		c0.1,0.5-0.1,1.7-1,3.1C142.4,35.3,138.7,37.3,134.3,39.1z M121.2,53.5c0.7,1,5-4.8,8.3-12.5C122.6,44.9,120.3,52.1,121.2,53.5z"/>
	<path class="st0" d="M158.7,15.1c-0.5-0.7-0.2-1.1,0.6-1.1c1.5,0.1,3-0.1,4.4-0.2c1.6-2.9,3.1-5.4,4-6.6c0.5-0.7,1-0.6,1.3,0
		c0.6,1.5,0.6,3.2-0.7,6c2.1-0.1,2.9,0.9,3.3,1.6c0.4,0.6,0.2,1-0.6,1c-1.2-0.2-2.8,0-4.1,0.2c-2.1,3.5-5.1,8.7-7.1,13.1
		c-1.7,3.9-1.2,7.1,1.1,7.3c2.4,0.1,5.4-3.7,7.4-7.6c0.3-0.6,0.9-0.7,1.1,0c0.3,0.8,0,1.8-0.5,3c-0.7,1.5-4.2,6.2-8.4,6
		c-3.5-0.1-6.3-4-3.8-10.1c1.1-2.6,3.3-7.1,5.6-11.3C160.3,16.5,159.1,15.7,158.7,15.1z"/>
	<path class="st0" d="M180.1,38c-4.4,0-5.6-3.2-4-7.8c1.7-5.1,6.4-10.6,5.5-11.1c-0.7-0.4-6.5,3.2-9.6,8.2
		c-1.9,3.1-3.9,6.8-5.1,10.1c-0.2,0.5-0.6,0.6-0.9,0.2c-0.8-1-1.3-2.4-0.2-5.6c1.9-5.3,12.9-23.9,17.2-29.3c0.5-0.6,1-0.6,1.3,0.1
		c0.7,1.5,0.5,4.2-1.5,7.5c-1.3,2.1-4.1,6.4-6.4,10c2.2-2.1,4.9-3.9,6.4-3.7c1.8,0.2,3.4,2.9,2.1,5.6c-1.2,2.3-3.7,6.2-4.9,8.9
		c-1.3,3.1-1.1,5.6,0.9,5.5c2.2-0.1,5.1-3.9,6.7-7.3c0.2-0.5,0.7-0.5,1-0.1c0.3,0.6,0.3,1.7-0.5,3.3C186.5,35.3,183.2,38,180.1,38z"
		/>
	<path class="st0" d="M214.7,37.9c-4-0.2-5.6-3.8-4.3-8.1c1.1-3.5,4.3-7.5,6.6-10c-2.3,1.5-4.7,2-6.4,2c-4.4,9.2-10.1,15.9-16.4,16
		c-6.7,0.1-9-6.5-5.6-13.2c3.3-6.6,8.7-9.5,11.4-8c1.3,0.8,2.3,1.5,3.1,2.7c0.9,1.3,0.4,4.4-1.7,7.1c-2.5,3.2-6,4.6-9.7,1.6
		c-1.7,4.8-0.4,8.3,2.3,8.4c5.8,0.3,11.6-8.1,14.6-14.8c-4.1-1.7,1.1-8.7,3.3-8.8c1.6-0.1,1.1,3.2-0.2,6.6c1.9-0.3,3.7-1.1,5.8-2.5
		c0.6-0.4,1.1-0.7,1.5-0.2c1.1,1.2,2.4,3.7,0.8,5.5c-2.5,2.8-5.2,6.4-6.1,9.2c-0.9,2.9-0.3,5,1.3,5.1c2.2,0.1,4.9-3.4,6.6-7.3
		c0.2-0.4,0.6-0.5,0.8-0.1c0.3,0.6,0.4,2-0.3,3.4C220.8,35.6,217.6,38.1,214.7,37.9z M198.4,24.2c1.7-2.2,2.8-4.9,2.1-5.5
		c-1.2-1-5.5,2.3-7.9,7.2c-0.2,0.3-0.3,0.6-0.4,0.9C194.7,28.4,196.8,26.2,198.4,24.2z"/>
	<path class="st0" d="M228.2,36.4c4.4,0.2,8.3-4,10.5-7.5c0.3-0.4,0.7-0.4,0.9,0.1c0.2,0.4,0.1,1.9-0.9,3.3
		c-2.2,3.2-6.3,5.7-10.4,5.7c-6.7,0.1-9.1-6.5-5.6-13.3s8.8-9.6,11.5-8c1.3,0.8,2.3,1.6,3.1,2.8c1,1.3,0.5,4.5-1.7,7.2
		c-2.6,3.2-6.1,4.6-9.8,1.5C224.1,32.9,225.4,36.3,228.2,36.4z M232.6,24.3c1.7-2.2,2.9-5,2.1-5.6c-1.1-0.9-5.5,2.3-8,7.3
		c-0.2,0.3-0.3,0.6-0.4,0.9C228.9,28.5,231,26.3,232.6,24.3z"/>
	<path class="st0" d="M244.4,37.7c-0.6,0.8-2.2,0.5-2.9-0.7c-0.8-1.4-0.6-3,0.3-3.9c0.8-0.8,2.3-0.3,3,1.2
		C245.4,35.6,245,37,244.4,37.7z M258,4.7c0.7,1.5,0.6,4.1-1.6,8c-2.9,5.2-7.4,13.6-10.1,19.4c-0.3,0.5-0.5,0.6-0.9,0.2
		c-0.8-0.8-1.3-2.6-0.2-5.8c2.1-5.7,7.4-16.1,11.4-22C257.1,3.9,257.7,3.9,258,4.7z"/>
</g>
</svg>
