<?xml version="1.0" encoding="iso-8859-1"?>
<!-- Generator: Adobe Illustrator 19.0.0, SVG Export Plug-In . SVG Version: 6.00 Build 0)  -->
<svg version="1.1" id="Layer_1" xmlns="http://www.w3.org/2000/svg" xmlns:xlink="http://www.w3.org/1999/xlink" x="0px" y="0px"
	 viewBox="0 0 512 512" style="enable-background:new 0 0 512 512;" xml:space="preserve">
<path style="fill:#FF7452;" d="M499.985,178.315C467.09,74.913,370.3,0,256,0C114.616,0,0,114.615,0,256
	c0,114.3,74.913,211.09,178.315,243.985L499.985,178.315z"/>
<path style="fill:#E24642;" d="M512,256c0-27.085-4.221-53.182-12.015-77.685l-107.08-107.08l-7.346,7.346l-29.607-29.607
	l-29.607,29.607l-29.607-29.607L267.13,78.581l-29.607-29.607l-29.607,29.607L178.31,48.974l-59.214,391.791l59.219,59.219
	C202.818,507.779,228.915,512,256,512C397.384,512,512,397.384,512,256z"/>
<polygon style="fill:#FFD652;" points="233.739,385.113 256,440.765 392.904,440.765 392.904,418.504 "/>
<g>
	<polygon style="fill:#FBE287;" points="300.522,329.461 326.122,418.504 392.904,418.504 392.904,351.722 	"/>
	<polygon style="fill:#FBE287;" points="119.096,418.504 119.096,440.765 256,440.765 256,418.504 189.217,396.243 	"/>
	<polygon style="fill:#FBE287;" points="392.904,71.235 392.904,126.887 222.609,149.148 256,71.235 	"/>
</g>
<g>
	<polygon style="fill:#F7EDBC;" points="256,71.235 256,149.148 119.096,126.887 119.096,71.235 	"/>
	<polygon style="fill:#F7EDBC;" points="392.904,126.887 392.904,351.722 350.976,373.983 326.122,418.504 256,418.504 
		222.609,272.696 256,126.887 	"/>
</g>
<g>
	<rect x="119.096" y="126.887" style="fill:#FFFFFF;" width="136.904" height="291.617"/>
	<polygon style="fill:#FFFFFF;" points="326.122,418.504 326.122,351.722 392.904,351.722 	"/>
</g>
<g>
	<rect x="156.049" y="48.974" style="fill:#595959;" width="22.261" height="44.522"/>
	<rect x="215.263" y="48.974" style="fill:#595959;" width="22.261" height="44.522"/>
</g>
<g>
	<rect x="333.69" y="48.974" style="fill:#383838;" width="22.261" height="44.522"/>
	<rect x="274.477" y="48.974" style="fill:#383838;" width="22.261" height="44.522"/>
</g>
<path style="fill:#E24642;" d="M356.174,234.512c0,16.173-6.764,30.779-17.643,41.236l-82.535,81.539l-23.293-82.505L256,194.603
	c10.592-10.863,25.455-17.63,41.933-17.63C330.098,176.974,356.174,202.735,356.174,234.512z"/>
<path style="fill:#F15D4A;" d="M214.067,176.974c-32.165,0-58.241,25.761-58.241,57.538c0,16.173,6.764,30.779,17.635,41.236
	l82.536,81.539L256,194.603C245.408,183.74,230.537,176.974,214.067,176.974z"/>
<g>
</g>
<g>
</g>
<g>
</g>
<g>
</g>
<g>
</g>
<g>
</g>
<g>
</g>
<g>
</g>
<g>
</g>
<g>
</g>
<g>
</g>
<g>
</g>
<g>
</g>
<g>
</g>
<g>
</g>
</svg>
