<?xml version="1.0" encoding="utf-8"?>
<!-- Generator: Adobe Illustrator 21.0.2, SVG Export Plug-In . SVG Version: 6.00 Build 0)  -->
<svg version="1.1" id="Calque_1" xmlns="http://www.w3.org/2000/svg" xmlns:xlink="http://www.w3.org/1999/xlink" x="0px" y="0px"
	 viewBox="0 0 326.2 57.8" style="enable-background:new 0 0 326.2 57.8;" xml:space="preserve">
<style type="text/css">
	.st0{enable-background:new    ;}
	.st1{fill:#F7F7F7;}
	.st2{fill:#FFFFFF;}
</style>
<g class="st0">
	<g>
		<path class="st1" d="M45.1,4.2c1.1,0,2.1,0.2,2.9,0.7s1.5,1.1,2,1.9s0.9,1.8,1.2,2.9s0.4,2.4,0.4,3.8v1.3c0,2.1-0.3,3.9-1,5.5
			c-0.7,1.5-1.9,2.5-3.6,2.9c1.7,0.4,2.9,1.4,3.6,3c0.7,1.5,1,3.4,1,5.6v2.6c0,1.4-0.1,2.7-0.4,3.8c-0.3,1.2-0.7,2.2-1.2,3
			c-0.5,0.9-1.2,1.5-2,2s-1.8,0.7-3,0.7c-1.1,0-2.1-0.2-2.9-0.7s-1.5-1.2-2-2c-0.5-0.9-0.9-1.9-1.2-3c-0.3-1.2-0.4-2.5-0.4-3.8v-2.6
			c0-2.2,0.3-4.1,1-5.6s1.9-2.5,3.7-3c-1.7-0.4-2.9-1.4-3.6-2.9c-0.7-1.5-1.1-3.4-1.1-5.5v-1.3c0-2.8,0.5-5,1.6-6.7
			C41.2,5.1,42.9,4.2,45.1,4.2z M45.1,4.7c-2.1,0-3.6,0.8-4.6,2.5c-1,1.6-1.5,3.7-1.5,6.3v1.3c0,2.6,0.5,4.6,1.5,6s2.5,2.1,4.6,2.1
			s3.6-0.7,4.7-2.1c1-1.4,1.5-3.4,1.5-6v-1.3c0-2.6-0.5-4.7-1.5-6.3C48.8,5.5,47.2,4.7,45.1,4.7z M45.1,23.5c-2.1,0-3.7,0.7-4.7,2.1
			s-1.5,3.4-1.5,6.1v2.6c0,1.3,0.1,2.5,0.3,3.6s0.6,2.1,1.1,2.9c0.5,0.8,1.1,1.5,1.9,1.9c0.8,0.4,1.7,0.7,2.8,0.7s2-0.2,2.8-0.7
			c0.8-0.4,1.4-1.1,1.9-1.9c0.5-0.8,0.9-1.8,1.1-2.9c0.2-1.1,0.3-2.3,0.3-3.6v-2.6c0-2.7-0.5-4.7-1.5-6.1
			C48.8,24.2,47.3,23.5,45.1,23.5z"/>
		<g>
			<path class="st2" d="M45.1,4.2c2.1-0.1,4.1,0.9,5.4,2.7c0.6,0.9,1.1,1.8,1.5,2.9c0.4,1.1,0.5,2.1,0.6,3.2c0.1,2,0.1,4.2-0.6,6.4
				c-0.3,1-0.8,2.2-1.6,3.1c-0.8,0.9-2,1.5-3.1,1.8v-1.9c1.2,0.3,2.5,0.9,3.3,2c0.9,1,1.3,2.2,1.6,3.3c0.3,1.2,0.4,2.3,0.5,3.5
				c0,1.2,0,2.2,0,3.3c0,1.1,0,2.3-0.3,3.5c-0.3,1.2-0.6,2.3-1.1,3.4L51,41.5l-0.2,0.4c-0.2,0.3-0.4,0.5-0.6,0.8
				c-0.4,0.5-0.9,0.9-1.5,1.2c-0.5,0.4-1.2,0.6-1.8,0.8c-0.6,0.1-1.2,0.2-1.8,0.2c-1.2,0-2.6-0.2-3.7-1c-1-0.7-1.9-1.7-2.4-2.8
				c-0.5-1.1-0.9-2.1-1.1-3.4c-0.2-1.2-0.3-2.3-0.3-3.4c0-1.1,0-2.2,0-3.3c0-1.1,0.2-2.3,0.5-3.5c0.2-0.6,0.4-1.2,0.6-1.7
				c0.3-0.6,0.6-1.1,1.1-1.6c0.9-1,2.1-1.6,3.3-1.9l0,1.9c-1.1-0.3-2.3-0.9-3.1-1.8c-0.4-0.5-0.8-1-1-1.5c-0.3-0.5-0.5-1-0.6-1.6
				c-0.7-2.1-0.8-4.4-0.6-6.4c0.2-2.1,0.8-4.3,2.1-6.1c0.6-0.9,1.5-1.6,2.4-2C43,4.4,44.1,4.2,45.1,4.2z M45.1,4.2
				c-1,0-2.1,0.2-2.9,0.8c-0.9,0.5-1.5,1.3-1.9,2.2C39.4,9,39.4,11,39.5,13c0,0.5,0.1,1,0,1.5c0,0.5,0,1,0,1.5
				c0.1,1,0.2,1.9,0.5,2.8c0.3,0.9,0.7,1.7,1.2,2.3c0.6,0.6,1.3,1,2.1,1.2l3.8,0.9l-3.8,1c-0.9,0.3-1.7,0.7-2.3,1.3
				c-0.6,0.6-1,1.5-1.2,2.5c-0.5,1.9-0.4,4.1-0.4,6.3c0,1.1,0.1,2.1,0.2,3.1c0.2,0.9,0.5,1.9,1,2.8c0.4,0.8,1,1.5,1.8,2.1
				c0.7,0.5,1.6,0.7,2.6,0.7c1,0,1.9-0.2,2.6-0.6c0.4-0.3,0.8-0.6,1-0.9c0.1-0.2,0.3-0.3,0.4-0.5l0.2-0.3l0.2-0.3
				c0.4-0.8,0.7-1.9,1-2.8c0.2-1,0.2-2,0.2-3.1c0-2.2,0.1-4.3-0.4-6.3c-0.3-0.9-0.6-1.9-1.2-2.5c-0.6-0.7-1.3-1.1-2.2-1.3l-4.1-1
				l4.1-1c0.8-0.2,1.6-0.6,2.1-1.2c0.6-0.6,0.9-1.4,1.2-2.3c0.3-0.9,0.4-1.8,0.5-2.8c0.1-0.9,0-2,0.1-3c0.1-1,0.1-2,0-2.9
				c-0.1-1-0.3-1.9-0.7-2.8c-0.4-0.9-1-1.7-1.9-2.3C47.2,4.4,46.1,4.2,45.1,4.2z"/>
			<path class="st2" d="M45.1,4.7c-1,0-2.1,0.4-2.8,1.1c-0.7,0.7-1,1.6-1.3,2.5c-0.8,1.6-1.1,3.6-1,5.6c0,1.1,0,2,0.1,3
				c0.1,1,0.4,1.9,0.8,2.7c0.4,0.8,1,1.4,1.7,1.8c0.7,0.4,1.6,0.5,2.6,0.5c0.9,0,1.8-0.2,2.5-0.6c0.4-0.2,0.7-0.5,1-0.8
				c0.3-0.3,0.5-0.6,0.7-1c0.4-0.8,0.6-1.7,0.8-2.7c0.1-1,0.1-1.9,0.1-3c0-2-0.2-4-1.1-5.6c-0.3-0.9-0.6-1.8-1.3-2.5
				C47.2,5.1,46.1,4.7,45.1,4.7z M45.1,4.7c1,0,2.1,0.1,3.2,0.4c1.1,0.3,2.1,1.2,2.7,2.2c1.1,2.1,1.3,4.4,1.3,6.5
				c0,2.1,0,4.4-1.1,6.6c-0.3,0.5-0.6,1.1-1.1,1.5c-0.4,0.4-0.9,0.8-1.5,1.1c-1.1,0.6-2.3,0.8-3.5,0.8c-1.1,0-2.4-0.2-3.5-0.8
				c-1.1-0.6-2-1.6-2.5-2.7C38.1,18.4,38,16,38,13.9c0-2.1,0.2-4.4,1.2-6.5c0.6-0.9,1.6-1.8,2.7-2.2C43,4.8,44.1,4.7,45.1,4.7z"/>
			<path class="st2" d="M45.1,23.5c-1.2,0-2.5,0.5-3.3,1.3c-0.8,0.8-1,1.9-1.4,2.9c-0.4,1-0.5,2.2-0.5,3.4c0,1.2,0,2.5,0,3.7
				c0,1.2,0.1,2.4,0.4,3.5c0.3,1.1,0.8,2.1,1.4,2.9c0.4,0.4,0.7,0.6,1.1,0.8c0.5,0.2,1,0.4,1.5,0.4c0.5,0.1,1.1,0.1,1.6,0
				c0.5-0.1,0.9-0.2,1.4-0.5l0,0l0,0c1-0.5,1.8-1.8,2.2-3c0.4-1.3,0.5-2.8,0.6-4.2c0-1.5,0.1-3.1-0.1-4.5c-0.1-1.5-0.6-2.7-1-4
				l0-0.1c-0.2-0.7-0.6-1.4-1.4-1.8C46.9,23.7,46,23.5,45.1,23.5z M45.1,23.5c0.9,0,1.7,0,2.6,0.2c0.9,0.2,1.9,0.7,2.5,1.5l0-0.1
				c0.3,0.3,0.6,0.7,0.8,1c0.3,0.4,0.4,0.8,0.5,1.2c0.2,0.8,0.4,1.6,0.5,2.5c0.1,1.7,0.1,3.2,0.1,4.7c0,1.6-0.1,3.2-0.7,4.9
				c-0.3,0.8-0.7,1.6-1.2,2.3c-0.5,0.7-1.1,1.4-2,1.9l0.1,0c-0.6,0.4-1.4,0.7-2.1,0.8c-0.7,0.1-1.4,0.1-2.1,0
				c-0.7-0.1-1.4-0.3-2.1-0.6c-0.3-0.1-0.7-0.3-1-0.6c-0.3-0.2-0.6-0.5-0.8-0.8c-0.9-1.1-1.5-2.4-1.9-3.7c-0.3-1.3-0.4-2.6-0.4-3.9
				c0-1.3,0-2.5,0-3.8c0-1.3,0.2-2.6,0.6-3.9c0.4-1.3,1.5-2.5,2.8-3C42.6,23.5,43.9,23.5,45.1,23.5z"/>
		</g>
	</g>
</g>
<g class="st0">
	<g>
		<polygon class="st1" points="57.7,25 57.7,2.5 53.7,2.5 53.7,2.2 62,2.2 62,2.5 58,2.5 58,25 		"/>
		<path class="st2" d="M57.7,25l-0.6-5.2C57,18.9,56.8,18,56.8,17c0-1,0-1.9,0-2.9c-0.1-3.9-0.1-7.8-0.1-11.6l1,1h-4h-1v-1V2.2v-1h1
			H62h1v1v0.3v1h-1h-4l1-1v11.2c0,1.9,0.1,3.7-0.2,5.6c-0.2,1.9-0.5,3.7-0.7,5.6l0,0l0,0L57.7,25z M57.7,25c0.1,0,0.2,0,0.3,0l0,0
			c-0.3-1.9-0.5-3.7-0.7-5.6c-0.3-1.9-0.2-3.7-0.2-5.6V2.5v-1h1h4l-1,1V2.2l1,1h-8.3l1-1v0.3l-1-1h4h1l0,1c0,3.6,0,7.2-0.1,10.9
			c0,0.9,0,1.8,0,2.7c0,0.9-0.2,1.9-0.3,2.9L57.7,25z"/>
	</g>
	<g>
		<polygon class="st1" points="63.8,13.8 63.8,25 63.5,25 63.5,2.2 63.8,2.2 63.8,13.5 70.6,13.5 70.6,2.2 70.9,2.2 70.9,25 
			70.6,25 70.6,13.8 		"/>
		<path class="st2" d="M63.8,13.8c0.2,4,0.6,7.7,0.9,11.2l0.1,0.8l-0.9,0.1l-0.3,0L62.7,26l-0.1-1c-0.2-1.9-0.1-3.8-0.1-5.7v-5.7
			V2.2v-1h1h0.3h1v1v11.3l-1-1h6.8l-1,1V2.2v-1h1h0.3h1v1V25v1h-1h-0.3h-1l0-1l0-2.8c0-0.9,0-1.9,0.1-2.8l0.4-5.6l0.5,0.5
			C68.5,14.2,66.2,13.9,63.8,13.8z M63.8,13.8l6.8-0.5l0.5,0l0,0.6l0.4,5.6c0.1,0.9,0.1,1.9,0.1,2.8l0,2.8l-1-1h0.3l-1,1V2.2l1,1
			h-0.3l1-1v11.3v1h-1h-6.8h-1v-1V2.2l1,1h-0.3l1-1v11.4v5.7c0,1.9,0.1,3.8-0.1,5.7l-0.9-0.9l0.3,0L62.9,25
			C63.2,21,63.6,17.3,63.8,13.8z"/>
	</g>
</g>
<g class="st0">
	<g>
		<rect x="80.9" y="23.8" class="st1" width="7.6" height="0.5"/>
		<path class="st2" d="M80.9,23.8c0.4-0.3,0.8-0.5,1.4-0.8c0.6-0.1,1.4-0.1,2.1-0.1c1.4-0.1,2.8-0.1,4.2-0.1l1,0v1v0.5v1h-1h-3.8
			h-1.9c-0.3,0.1-0.6-0.1-0.9-0.3c-0.3-0.1-0.6-0.3-0.9-0.5l-0.3-0.2l0-0.1C80.7,24.1,80.8,23.9,80.9,23.8z M80.9,23.8
			c0.1,0.2,0.2,0.4,0.3,0.5L80.9,24c0.3-0.2,0.6-0.3,0.9-0.5c0.3-0.1,0.6-0.4,0.9-0.3h1.9h3.8l-1,1v-0.5l1,1c-1.1,0-2.3,0-3.4-0.1
			c-0.6,0-1.1,0-1.7-0.1C82.6,24.3,81.8,24.1,80.9,23.8z"/>
	</g>
	<g>
		<path class="st1" d="M99.2,5.4C98.7,6.9,98,8.1,97.1,9c-0.9,1-2,1.5-3.2,1.7v-0.6c1.3-0.2,2.4-0.8,3.2-1.8c0.8-1,1.5-2.4,1.9-3.9
			h0.6v39.2h-0.4V5.4z"/>
		<path class="st2" d="M99.2,5.4c-0.3,1.3-0.8,2.6-1.6,3.7c-0.4,0.5-0.9,1.1-1.5,1.5c-0.6,0.4-1.3,0.7-2,0.8l-0.8,0.2l-0.1-0.9
			l0-0.6l0-0.6l0.7-0.2c0.6-0.1,1.1-0.4,1.6-0.7c0.5-0.3,0.8-0.7,1.1-1.2c0.7-0.9,1.3-2.1,1.6-3.3l0.2-0.7H99h0.6h1v1v39.2v1h-1
			h-0.4h-1l0-1c0-6.2,0-12.3,0.2-18.5l0.2-4.6c0-0.8,0-1.5,0.1-2.3l0.2-2.5C99,12.3,99.1,8.9,99.2,5.4z M99.2,5.4
			c0.1,2.9,0.2,5.8,0.4,8.8l0.2,2.3c0.1,0.8,0,1.6,0.1,2.4l0.2,4.9c0.2,6.6,0.2,13.2,0.2,19.7l-1-1h0.4l-1,1V4.4l1,1H99l1-0.7
			c-0.2,0.7-0.4,1.4-0.7,2.1c-0.3,0.7-0.7,1.3-1.1,1.9c-0.4,0.6-1.1,1.2-1.8,1.5c-0.7,0.4-1.5,0.6-2.3,0.6l0.6-0.7l0,0.6L93.8,10
			c0.6,0,1.2-0.2,1.7-0.4c0.6-0.2,1-0.6,1.5-1C97.9,7.7,98.7,6.6,99.2,5.4z"/>
	</g>
	<g>
		<path class="st1" d="M105.4,14.1c0-1.3,0.1-2.6,0.3-3.8c0.2-1.2,0.6-2.3,1.1-3.2s1.2-1.6,2-2.1s1.8-0.8,3-0.8s2.1,0.3,2.9,0.8
			s1.4,1.2,2,2.1c0.5,0.9,0.9,1.9,1.1,3.2c0.2,1.2,0.3,2.5,0.3,3.8V34c0,1.3-0.1,2.6-0.3,3.8c-0.2,1.2-0.6,2.3-1.1,3.2
			s-1.2,1.6-2,2.2c-0.8,0.5-1.8,0.8-2.9,0.8c-1.2,0-2.1-0.3-3-0.8c-0.8-0.5-1.5-1.2-2-2.2c-0.5-0.9-0.9-2-1.1-3.2s-0.3-2.5-0.3-3.8
			V14.1z M105.8,34c0,1.3,0.1,2.5,0.3,3.6c0.2,1.1,0.5,2.1,1,3s1.1,1.5,1.8,2c0.8,0.5,1.7,0.8,2.8,0.8c1.1,0,2-0.3,2.8-0.8
			s1.4-1.2,1.8-2c0.5-0.9,0.8-1.9,1-3s0.3-2.3,0.3-3.6V14.1c0-1.3-0.1-2.5-0.3-3.6c-0.2-1.1-0.5-2.1-1-3s-1.1-1.5-1.8-2
			c-0.8-0.5-1.7-0.8-2.8-0.8c-1.1,0-2,0.3-2.8,0.8s-1.4,1.2-1.8,2c-0.5,0.9-0.8,1.9-1,3s-0.3,2.3-0.3,3.6V34z"/>
		<g>
			<path class="st2" d="M105.4,14.1c0-1.6,0-3.2,0.2-4.8c0.1-0.8,0.3-1.6,0.7-2.4c0.3-0.8,0.9-1.6,1.6-2.2c0.7-0.6,1.6-1.1,2.5-1.3
				c0.9-0.2,1.8-0.1,2.8,0c1,0.2,1.8,0.6,2.6,1.2c0.8,0.6,1.3,1.3,1.8,2l0,0l0,0c0.4,0.7,0.8,1.5,1,2.4c0.2,0.9,0.3,1.6,0.4,2.5
				c0.1,0.8,0.1,1.6,0.1,2.4l0,2.3v9.3l0,9.4c-0.1,1.6-0.2,3.2-0.8,4.9c-0.3,0.8-0.6,1.6-1.2,2.3c-0.5,0.7-1.2,1.4-1.9,1.9l0,0l0,0
				c-1.6,1-3.4,1.2-5.2,0.7c-0.9-0.2-1.7-0.6-2.4-1.2c-0.7-0.5-1.3-1.3-1.7-2c-0.8-1.4-1.3-3.1-1.4-4.7c-0.2-1.6-0.2-3.2-0.2-4.6
				v-4.5c-0.1-1.5,0.1-3,0.2-4.5l0.5-4.5C105.3,17.1,105.4,15.6,105.4,14.1z M105.4,14.1c0,1.5,0.1,3,0.2,4.5l0.5,4.5
				c0.2,1.5,0.3,3,0.2,4.5v4.5c0,1.5,0,3,0.2,4.4c0.2,1.5,0.5,2.7,1.2,4c0.6,1.1,1.6,1.9,2.8,2.2c1.2,0.3,2.6,0.1,3.6-0.5l-0.1,0
				c1.2-0.8,1.9-1.9,2.3-3.3c0.5-1.3,0.6-2.8,0.7-4.3l0-9.3v-9.3l0-2.3c0-0.7,0-1.5-0.1-2.2c-0.2-1.5-0.4-2.8-1.1-4.1l0,0.1
				c-0.4-0.6-0.9-1.2-1.4-1.6c-0.5-0.4-1.1-0.7-1.7-0.8c-0.6-0.1-1.4-0.1-2,0c-0.7,0.1-1.3,0.3-1.9,0.6c-0.6,0.3-1.1,0.8-1.6,1.4
				c-0.5,0.6-0.8,1.3-1.1,2C105.6,10.9,105.4,12.5,105.4,14.1z"/>
			<path class="st2" d="M105.8,34c0,1.9,0.3,3.8,1.2,5.4c0.8,1.6,2.2,2.7,3.7,2.9c0.7,0.1,1.5,0.2,2.2-0.1c0.7-0.2,1.4-0.6,1.9-1.2
				c0.5-0.5,0.9-1.3,1.1-2.1c0.3-0.8,0.4-1.7,0.5-2.5c0.1-0.9,0.1-1.8,0.1-2.7v-2.8v-5.6V14.1c0-1.8-0.2-3.6-0.7-5.2
				c-0.6-1.6-1.6-2.8-3.1-3.1c-0.7-0.2-1.6-0.2-2.3,0.1c-0.7,0.2-1.4,0.6-1.9,1.2c-0.5,0.5-0.9,1.3-1.1,2.1
				c-0.3,0.8-0.4,1.7-0.5,2.5c-0.1,0.9-0.1,1.8-0.1,2.7v2.8v5.6C106.5,26.5,105.7,30.3,105.8,34z M105.8,34c0.1-3.7-0.7-7.5-1-11.2
				v-5.6v-2.8c0-0.9,0-1.9,0.1-2.9c0.2-1.9,0.7-4,2.1-5.7c1.5-1.7,3.9-2.4,6.1-1.9c0.5,0.1,1.1,0.3,1.6,0.6c0.5,0.3,0.9,0.6,1.3,1
				c0.8,0.8,1.3,1.8,1.7,2.7c0.7,2,0.9,3.9,0.9,5.9v11.2v5.6v2.8c0,0.9,0,1.9-0.1,2.9c-0.2,1.9-0.7,4-2.1,5.7
				c-1.5,1.7-3.9,2.4-6.1,1.9c-0.5-0.2-1-0.4-1.5-0.7c-0.5-0.3-0.8-0.7-1.2-1.1c-0.7-0.8-1.1-1.8-1.3-2.8
				C105.8,37.7,105.8,35.9,105.8,34z"/>
		</g>
	</g>
</g>
<g class="st0">
	<g>
		<polygon class="st1" points="122.1,25 122.1,2.5 118.1,2.5 118.1,2.2 126.4,2.2 126.4,2.5 122.4,2.5 122.4,25 		"/>
		<path class="st2" d="M122.1,25l-0.6-5.2c-0.1-0.9-0.3-1.8-0.3-2.8c0-1,0-1.9,0-2.9c-0.1-3.9-0.1-7.8-0.1-11.6l1,1h-4h-1v-1V2.2v-1
			h1h8.3h1v1v0.3v1h-1h-4l1-1v11.2c0,1.9,0.1,3.7-0.2,5.6c-0.2,1.9-0.5,3.7-0.7,5.6l0,0l0,0L122.1,25z M122.1,25c0.1,0,0.2,0,0.3,0
			l0,0c-0.3-1.9-0.5-3.7-0.7-5.6c-0.3-1.9-0.2-3.7-0.2-5.6V2.5v-1h1h4l-1,1V2.2l1,1h-8.3l1-1v0.3l-1-1h4h1l0,1c0,3.6,0,7.2-0.1,10.9
			c0,0.9,0,1.8,0,2.7c0,0.9-0.2,1.9-0.3,2.9L122.1,25z"/>
	</g>
	<g>
		<polygon class="st1" points="128.2,13.8 128.2,25 127.9,25 127.9,2.2 128.2,2.2 128.2,13.5 135,13.5 135,2.2 135.3,2.2 135.3,25 
			135,25 135,13.8 		"/>
		<path class="st2" d="M128.2,13.8c0.2,4,0.6,7.7,0.9,11.2l0.1,0.8l-0.9,0.1l-0.3,0l-0.8,0.1l-0.1-1c-0.2-1.9-0.1-3.8-0.1-5.7v-5.7
			V2.2v-1h1h0.3h1v1v11.3l-1-1h6.8l-1,1V2.2v-1h1h0.3h1v1V25v1h-1H135h-1l0-1l0-2.8c0-0.9,0-1.9,0.1-2.8l0.4-5.6l0.5,0.5
			C132.9,14.2,130.6,13.9,128.2,13.8z M128.2,13.8l6.8-0.5l0.5,0l0,0.6l0.4,5.6c0.1,0.9,0.1,1.9,0.1,2.8l0,2.8l-1-1h0.3l-1,1V2.2
			l1,1H135l1-1v11.3v1h-1h-6.8h-1v-1V2.2l1,1h-0.3l1-1v11.4v5.7c0,1.9,0.1,3.8-0.1,5.7l-0.9-0.9l0.3,0l-0.9,0.9
			C127.6,21,128,17.3,128.2,13.8z"/>
	</g>
</g>
<g class="st0">
	<g>
		<path class="st1" d="M164.8,4.2c1.1,0,2.1,0.3,2.9,0.8c0.8,0.5,1.4,1.2,1.9,2.1s0.8,1.9,1,3.1s0.3,2.4,0.3,3.7v0.7h-0.4v-0.7
			c0-1.2-0.1-2.4-0.3-3.5s-0.5-2.1-1-2.9s-1-1.5-1.8-2c-0.7-0.5-1.6-0.8-2.7-0.8c-1.1,0-2,0.2-2.7,0.7s-1.3,1.1-1.8,2
			c-0.5,0.8-0.8,1.8-1,2.9s-0.3,2.3-0.3,3.5c0,1.7,0.3,3.2,0.9,4.3c0.6,1.2,1.3,2.2,2.2,3.1s1.8,1.8,2.9,2.6c1,0.8,2,1.7,2.9,2.6
			s1.6,2,2.2,3.2c0.6,1.2,0.9,2.7,0.9,4.4c0,1.3-0.1,2.6-0.3,3.8s-0.6,2.2-1.1,3.1c-0.5,0.9-1.1,1.6-1.9,2.1
			c-0.8,0.5-1.8,0.8-2.9,0.8c-1.2,0-2.1-0.3-2.9-0.8c-0.8-0.5-1.4-1.2-1.9-2.1c-0.5-0.9-0.8-1.9-1.1-3.1c-0.2-1.2-0.3-2.4-0.3-3.8
			v-1.8h0.4V34c0,1.3,0.1,2.5,0.3,3.6s0.5,2.1,1,2.9c0.4,0.8,1,1.5,1.8,2c0.7,0.5,1.7,0.7,2.8,0.7s2-0.2,2.7-0.7
			c0.8-0.5,1.4-1.1,1.8-2c0.4-0.8,0.8-1.8,1-2.9c0.2-1.1,0.3-2.3,0.3-3.6c0-1.7-0.3-3.1-0.9-4.3c-0.6-1.2-1.3-2.2-2.2-3.1
			s-1.8-1.7-2.9-2.5c-1-0.8-2-1.7-2.9-2.6s-1.6-2-2.2-3.2c-0.6-1.2-0.9-2.7-0.9-4.5c0-2.8,0.5-5.1,1.4-6.9
			C161,5.2,162.6,4.2,164.8,4.2z"/>
		<path class="st2" d="M164.8,4.2c1.1,0,2.3,0.3,3.2,1c0.9,0.7,1.6,1.6,2.1,2.7c0.5,1.1,0.8,2.2,1,3.3c0.2,1.1,0.3,2.3,0.4,3.4
			l0,0.6l-0.7,0.1l-0.4,0l-0.7,0l0-0.7c-0.1-1.5-0.2-2.9-0.6-4.3c-0.2-0.7-0.4-1.3-0.7-1.9c-0.1-0.1-0.1-0.3-0.2-0.4l-0.3-0.4
			c-0.2-0.3-0.4-0.5-0.6-0.8c-0.2-0.2-0.4-0.4-0.7-0.6c-0.3-0.2-0.5-0.3-0.8-0.4c-0.6-0.2-1.1-0.2-1.8-0.2c-0.6,0-1.2,0.2-1.6,0.5
			c-0.5,0.4-1,0.8-1.3,1.3c-0.4,0.6-0.6,1.1-0.8,1.8c-0.2,0.6-0.3,1.3-0.4,2c-0.2,1.4-0.2,2.9,0,4.2c0.1,0.7,0.3,1.3,0.5,1.9
			c0.3,0.6,0.6,1.2,1,1.8c0.4,0.6,0.8,1,1.4,1.6c0.5,0.5,1,1,1.6,1.5c0.3,0.2,0.5,0.4,0.8,0.7c0.3,0.2,0.6,0.5,0.9,0.8l1.7,1.5
			c0.6,0.5,1.2,1.1,1.6,1.8c0.5,0.7,0.9,1.4,1.2,2.1c0.8,1.5,1,3.2,1.1,4.8c0,1.6-0.1,3.1-0.4,4.7c-0.2,0.8-0.5,1.6-0.8,2.3
			c-0.4,0.7-0.8,1.5-1.4,2.1c-1.3,1.3-3.1,1.9-4.8,1.9c-1.7,0-3.6-0.9-4.6-2.3c-1.1-1.4-1.6-3-1.9-4.5l0,0l0,0
			c-0.2-1-0.3-1.9-0.3-2.9c0-1,0-1.9,0-2.8l0-1h1h0.4h1l0,1c0,1.4,0,2.8,0.1,4.1c0.2,1.3,0.4,2.7,1,3.6l0,0l0,0
			c0.4,0.8,1.1,1.5,1.9,1.9c0.8,0.3,1.9,0.4,2.8,0.2c0.2,0,0.4-0.1,0.6-0.2c0.2-0.1,0.3-0.2,0.6-0.3c0.4-0.3,0.7-0.6,1-0.9
			c0.1-0.2,0.2-0.3,0.3-0.6c0.1-0.3,0.2-0.5,0.3-0.7c0.2-0.5,0.4-1,0.5-1.5c0.2-1,0.3-2.1,0.4-3.2c0-1.1,0-2.2-0.3-3.1
			c-0.1-0.5-0.3-1-0.5-1.4c-0.2-0.5-0.5-0.9-0.8-1.4c-0.3-0.4-0.6-0.8-1-1.2c-0.4-0.4-0.8-0.8-1.2-1.1c-0.4-0.4-0.8-0.7-1.3-1.1
			c-0.4-0.3-0.9-0.7-1.3-1.1l-1.3-1.2c-0.4-0.4-0.9-0.8-1.3-1.3c-0.8-1-1.4-2.1-1.9-3.2c-0.5-1.2-0.6-2.5-0.6-3.7
			c0.1-2.4,0.5-4.8,1.4-6.9c0.4-1.1,1.2-2.1,2.1-2.7C162.5,4.5,163.6,4.2,164.8,4.2z M164.8,4.2c-1.1,0-2.3,0.3-3.2,1
			c-0.9,0.7-1.5,1.7-1.8,2.8c-0.7,2.2-0.7,4.5-0.4,6.7c0.1,1.1,0.4,2.1,0.9,3c0.5,0.9,1.2,1.8,1.8,2.6c0.3,0.4,0.7,0.8,1.2,1.1
			l1.2,1.1c0.4,0.4,0.8,0.7,1.3,1.1c0.5,0.4,0.9,0.8,1.4,1.2c0.5,0.4,0.9,0.8,1.3,1.2c0.4,0.5,0.8,0.9,1.2,1.5
			c0.4,0.5,0.7,1.1,1,1.6c0.3,0.6,0.5,1.2,0.7,1.8c0.3,1.2,0.4,2.5,0.4,3.7c0,1.2-0.1,2.4-0.4,3.6c-0.1,0.6-0.3,1.2-0.6,1.8
			c-0.1,0.3-0.3,0.6-0.4,0.8c-0.1,0.3-0.3,0.6-0.5,0.9c-0.4,0.6-1,1.1-1.5,1.4c-0.2,0.1-0.6,0.4-0.9,0.5c-0.3,0.1-0.7,0.2-1,0.3
			c-0.7,0.1-1.3,0.1-2,0.1c-0.6,0-1.3-0.1-2-0.4c-1.3-0.6-2.3-1.6-3-2.8l0,0.1c-0.5-0.7-0.7-1.5-0.9-2.2c-0.2-0.8-0.3-1.5-0.4-2.2
			c-0.2-1.5-0.1-3-0.1-4.4l1,1h-0.4l1-1c0,0.9,0,1.9,0,2.8c0,0.9,0.1,1.8,0.3,2.7l0-0.1c0.3,1.4,0.8,2.7,1.6,3.7
			c0.8,1,1.9,1.5,3.2,1.5c1.3,0.1,2.5-0.4,3.3-1.2c0.4-0.4,0.8-1,1.1-1.6c0.3-0.6,0.5-1.2,0.7-1.9c0.3-1.3,0.4-2.8,0.4-4.2
			c0-1.4-0.2-2.7-0.8-3.9c-0.7-1.3-1.4-2.4-2.5-3.3l-1.6-1.4c-0.3-0.2-0.5-0.5-0.8-0.7c-0.3-0.2-0.6-0.5-0.9-0.7
			c-0.6-0.5-1.2-1.1-1.7-1.6c-0.5-0.5-1.1-1.2-1.6-1.8c-0.5-0.7-0.9-1.4-1.2-2.1c-0.4-0.8-0.6-1.6-0.7-2.4c-0.2-1.6-0.2-3.2,0-4.7
			c0.1-0.8,0.2-1.6,0.5-2.4c0.2-0.8,0.6-1.6,1.1-2.3c0.5-0.7,1.1-1.4,1.8-1.9c0.8-0.6,1.8-0.8,2.6-0.8c0.8-0.1,1.7,0,2.6,0.3
			c0.4,0.1,0.9,0.4,1.2,0.6c0.3,0.2,0.7,0.5,1,0.8c0.3,0.3,0.6,0.7,0.8,1l0.3,0.5c0.1,0.2,0.2,0.4,0.3,0.6c0.4,0.8,0.6,1.6,0.7,2.4
			c0.2,1.6,0.2,3.2,0.1,4.7l-0.7-0.7l0.4,0l-0.7,0.7c0.1-1.1,0.2-2.2,0.1-3.3c-0.1-1.1-0.2-2.2-0.5-3.3c-0.4-1-0.9-2-1.8-2.7
			C167.1,4.5,165.9,4.2,164.8,4.2z"/>
	</g>
	<g>
		<polygon class="st1" points="186.2,23.5 186.2,24.1 176.9,24.1 176.9,43.1 187.9,43.1 187.9,43.7 176.5,43.7 176.5,4.5 187.9,4.5 
			187.9,5 176.9,5 176.9,23.5 		"/>
		<path class="st2" d="M186.2,23.5l0,0.6l0,0l0,0c-3.1,0.2-6.2,0.4-9.3,0.6l0.6-0.6l0.2,4.7c0.1,1.6,0.2,3.2,0.2,4.7
			c0,1.6,0,3.2,0,4.7v4.7l-1-1h11h1v1v0.6v1h-1h-11.4h-1v-1V4.5v-1h1h11.4h1v1V5v1h-1h-11l1-1c0,3.1,0,6.2,0,9.2
			c0,1.5-0.2,3.1-0.2,4.6l-0.2,4.6l-0.5-0.5L186.2,23.5z M186.2,23.5c-3.3,0.1-6.3,0.4-9.3,0.5l-0.5,0l0-0.6l-0.2-4.6
			c-0.1-1.5-0.2-3.1-0.2-4.6c0-3.1,0-6.2,0-9.2l0-1h1h11l-1,1V4.5l1,1h-11.4l1-1v39.2l-1-1h11.4l-1,1v-0.6l1,1h-11h-1v-1v-4.7
			c0-1.6,0-3.2,0-4.7c0-1.6,0.1-3.2,0.2-4.7l0.2-4.7l0-0.6l0.6,0c3.1,0.2,6.2,0.4,9.3,0.6l0,0L186.2,23.5z"/>
	</g>
	<g>
		<path class="st1" d="M199.3,4.5c1.2,0,2.1,0.2,2.9,0.7c0.8,0.5,1.4,1.1,1.9,2c0.5,0.8,0.8,1.8,1,3c0.2,1.1,0.3,2.4,0.3,3.7v3.8
			c0,3.1-0.6,5.4-1.7,6.9c-1.1,1.5-2.9,2.2-5.4,2.2h-4.6v16.9h-0.4V4.5H199.3z M198.4,26.2c2.3,0,4-0.7,5-2c1-1.4,1.5-3.5,1.5-6.5
			v-3.8c0-1.3-0.1-2.4-0.3-3.5s-0.5-2-0.9-2.8s-1-1.4-1.8-1.8c-0.7-0.4-1.7-0.7-2.8-0.7h-5.4v21.2h4.7V26.2z"/>
		<g>
			<path class="st2" d="M199.3,4.5c0.7,0,1.4,0.1,2.1,0.3c0.7,0.2,1.3,0.6,1.9,1.1c0.6,0.5,1,1.1,1.4,1.7c0.4,0.7,0.7,1.4,0.9,2.1
				c0.4,1.4,0.7,2.9,0.7,4.4c0,1.4,0,2.8,0,4.3c0,1.5-0.2,3-0.7,4.5c-0.3,0.7-0.6,1.5-1.1,2.2c-0.5,0.7-1.2,1.3-1.9,1.7
				c-1.5,0.8-3.2,1-4.7,1h-4.3l1-1v16.9v1h-1h-0.4h-1v-1V24.1v-9.8c0-1.6-0.1-3.3,0.1-4.9c0.1-1.6,0.3-3.3,0.5-4.9l0-0.4l0.3,0
				c1,0.1,2,0.2,3,0.3C197.3,4.5,198.3,4.5,199.3,4.5z M199.3,4.5c-1,0-2,0-3,0.1c-1,0.1-2,0.2-3,0.3l0.4-0.4
				c0.2,1.6,0.4,3.3,0.5,4.9c0.2,1.6,0.1,3.3,0.1,4.9v9.8v19.6l-1-1h0.4l-1,1V26.8v-1h1h4.3c1.4,0,2.7-0.1,3.7-0.7
				c0.5-0.3,0.9-0.7,1.3-1.1c0.3-0.5,0.6-1.1,0.8-1.7c0.4-1.2,0.6-2.6,0.6-3.9c0-1.4,0-2.8,0-4.3c0-1.4,0.1-2.8,0-4.1
				c0-0.7-0.1-1.4-0.3-2c-0.2-0.6-0.5-1.3-1-1.8c-0.4-0.5-1-1-1.7-1.3C200.7,4.6,200,4.5,199.3,4.5z"/>
			<path class="st2" d="M198.4,26.2c1.4-0.2,2.7-0.7,3.6-1.6c0.2-0.2,0.4-0.4,0.6-0.7c0.2-0.2,0.3-0.5,0.4-0.8
				c0.2-0.6,0.3-1.2,0.5-1.8c0.3-1.2,0.4-2.6,0.4-3.9l0-4.2c0-1.3-0.2-2.7-0.5-3.9c-0.2-0.6-0.4-1.2-0.7-1.7
				c-0.3-0.5-0.7-0.8-1.2-1.1c-0.5-0.3-1.1-0.5-1.6-0.6c-0.3,0-0.6-0.1-0.9-0.1h-1h-4.2l1-1v10.6V21v1.3c0,0.4,0.1,0.9,0,1.3
				l-0.3,2.6l-0.7-0.7C195.3,25.8,196.8,26,198.4,26.2L198.4,26.2L198.4,26.2z M198.4,26.2L198.4,26.2l0,0.1l0,0
				c-1.6,0.2-3.1,0.5-4.7,0.7l-0.6,0.1l-0.1-0.7l-0.3-2.6c-0.1-0.4,0-0.9,0-1.3V21v-5.3V5.1v-1h1h4.2h1c0.4,0,0.8,0,1.2,0.1
				c0.8,0.1,1.6,0.4,2.3,0.8c0.7,0.4,1.4,1,1.9,1.7c0.5,0.8,0.7,1.4,0.9,2.2c0.4,1.5,0.6,2.9,0.6,4.4l0,4.2c0,1.4-0.1,2.9-0.4,4.4
				c-0.1,0.8-0.5,1.5-0.9,2.1c-0.2,0.3-0.5,0.7-0.8,0.9c-0.3,0.3-0.6,0.5-1,0.7C201.3,26.4,199.8,26.4,198.4,26.2z"/>
		</g>
	</g>
	<g>
		<polygon class="st1" points="216.9,43.7 216.9,5 210,5 210,4.5 224.2,4.5 224.2,5 217.3,5 217.3,43.6 216.9,43.6 		"/>
		<path class="st2" d="M216.9,43.7c-0.3-3.2-0.5-6.4-0.8-9.7c-0.1-1.6-0.3-3.2-0.3-4.8c0-1.6,0-3.2,0-4.8V5l1,1H210h-1V5V4.5v-1h1
			h14.2h1v1V5v1h-1h-6.9l1-1v19.3c0,3.2,0.1,6.4-0.2,9.6c-0.2,3.2-0.4,6.4-0.7,9.6l0,0l0,0L216.9,43.7L216.9,43.7L216.9,43.7z
			 M216.9,43.7L216.9,43.7l0-0.1l0,0l0.4,0l0,0c-0.3-3.2-0.5-6.4-0.7-9.6c-0.3-3.2-0.2-6.4-0.2-9.6V5V4h1h6.9l-1,1V4.5l1,1H210l1-1
			V5l-1-1h6.9h1v1v19.3c0,1.6,0,3.2,0,4.8c0,1.6-0.2,3.2-0.3,4.8C217.4,37.3,217.2,40.5,216.9,43.7z"/>
	</g>
	<g>
		<polygon class="st1" points="238.7,23.5 238.7,24.1 229.4,24.1 229.4,43.1 240.4,43.1 240.4,43.7 229,43.7 229,4.5 240.4,4.5 
			240.4,5 229.4,5 229.4,23.5 		"/>
		<path class="st2" d="M238.7,23.5l0,0.6l0,0l0,0c-3.1,0.2-6.2,0.4-9.3,0.6l0.6-0.6l0.2,4.7c0.1,1.6,0.2,3.2,0.2,4.7
			c0,1.6,0,3.2,0,4.7v4.7l-1-1h11h1v1v0.6v1h-1H229h-1v-1V4.5v-1h1h11.4h1v1V5v1h-1h-11l1-1c0,3.1,0,6.2,0,9.2
			c0,1.5-0.2,3.1-0.2,4.6l-0.2,4.6l-0.5-0.5L238.7,23.5z M238.7,23.5c-3.3,0.1-6.3,0.4-9.3,0.5l-0.5,0l0-0.6l-0.2-4.6
			c-0.1-1.5-0.2-3.1-0.2-4.6c0-3.1,0-6.2,0-9.2l0-1h1h11l-1,1V4.5l1,1H229l1-1v39.2l-1-1h11.4l-1,1v-0.6l1,1h-11h-1v-1v-4.7
			c0-1.6,0-3.2,0-4.7c0-1.6,0.1-3.2,0.2-4.7l0.2-4.7l0-0.6l0.6,0c3.1,0.2,6.2,0.4,9.3,0.6l0,0L238.7,23.5z"/>
	</g>
	<g>
		<polygon class="st1" points="254.9,43.6 254.3,43.6 246.3,5.1 246.3,43.7 245.9,43.7 245.9,4.5 246.7,4.5 254.7,42.9 262.8,4.5 
			263.5,4.5 263.5,43.7 263,43.7 263,5 		"/>
		<path class="st2" d="M254.9,43.6l-0.6,0l0,0l0,0c-1.5-6.4-3-12.8-4.5-19.1l-4.5-19.2l2-0.2l0,38.6l0,1h-1h-0.4h-1v-1V4.5v-1h1h0.8
			h0.8l0.2,0.8l8,38.4l-2,0l8.1-38.4l0.2-0.8h0.8h0.7h1v1v39.2v1h-1H263h-1v-1V24.4v-9.7c0-3.2-0.1-6.4,0-9.7l2,0.2L254.9,43.6z
			 M254.9,43.6L262,4.8l2,0.2c0.1,3.2,0,6.4,0,9.7v9.7v19.3l-1-1h0.5l-1,1V4.5l1,1h-0.7l1-0.8l-8.1,38.4l-1,4.7l-1-4.7l-8-38.4
			l1,0.8h-0.8l1-1v39.2l-1-1h0.4l-1,1l0-38.6l2-0.2l3.5,19.3c1.2,6.4,2.4,12.9,3.5,19.4l0,0L254.9,43.6z"/>
	</g>
	<g>
		<path class="st1" d="M274.9,4.5c2.2,0,3.7,0.7,4.5,2.1s1.2,3.4,1.2,5.9v2.7c0,2.2-0.3,4-0.9,5.3s-1.8,2.1-3.6,2.4
			c1.9,0.3,3.2,1.2,4,2.7s1.2,3.4,1.2,5.7v3.5c0,2.8-0.5,4.9-1.4,6.5c-1,1.6-2.6,2.4-4.9,2.4h-6V4.5H274.9z M273.6,22.5
			c1.1,0,2.1-0.1,2.9-0.3c0.8-0.2,1.5-0.6,2-1.1s0.9-1.3,1.2-2.2c0.3-1,0.4-2.2,0.4-3.7v-2.7c0-1.2-0.1-2.3-0.2-3.2
			c-0.2-0.9-0.4-1.7-0.8-2.3s-1-1.1-1.6-1.4c-0.7-0.3-1.5-0.5-2.5-0.5h-5.5v17.5h4.1V22.5z M274.9,43.1c2.1,0,3.7-0.7,4.5-2.2
			c0.9-1.5,1.3-3.5,1.3-6.2v-3.5c0-3-0.6-5.1-1.7-6.3c-1.1-1.2-2.8-1.8-5-1.8h-4.7v20H274.9z"/>
		<g>
			<path class="st2" d="M274.9,4.5c1,0,2,0.1,2.9,0.5c0.9,0.4,1.7,1.2,2.2,2.1c1,1.8,1.4,4,1.5,6c0.1,1,0.1,2,0,3
				c0,1-0.2,2.1-0.4,3.2c-0.1,0.5-0.3,1.1-0.6,1.6c-0.3,0.6-0.6,1.1-1.1,1.5c-1,0.9-2.1,1.2-3.2,1.4l0-2c1.5,0.2,3.1,1,4.1,2.3
				c1,1.3,1.4,2.8,1.7,4.2c0.3,1.5,0.2,2.9,0.2,4.3v2.1c0,0.7,0,1.4-0.1,2.2c-0.1,1.4-0.5,2.9-1.1,4.3c-0.6,1.5-2,2.7-3.6,3.2
				c-0.8,0.2-1.5,0.3-2.3,0.3l-2.1,0H269h-1v-1V24.1v-9.8c-0.2-3.3,0.4-6.5,0.7-9.8l0-0.4l0.3,0c1,0.1,2,0.2,2.9,0.2
				C272.9,4.5,273.9,4.5,274.9,4.5z M274.9,4.5c-1,0-2,0-2.9,0.1c-1,0.1-2,0.1-2.9,0.2l0.3-0.3c0.3,3.3,0.9,6.5,0.7,9.8v9.8v19.6
				l-1-1h4.1l2,0c0.6,0,1.2-0.1,1.7-0.3c1.1-0.3,1.9-1.1,2.4-2.1c0.5-1.1,0.8-2.3,0.9-3.6c0.1-0.6,0.1-1.3,0.1-1.9v-2.1
				c0-1.4,0-2.7-0.2-3.9c-0.2-1.2-0.6-2.5-1.3-3.3c-0.7-0.9-1.7-1.4-2.9-1.6l-6.2-0.9l6.2-1c0.9-0.1,1.7-0.4,2.2-0.9
				c0.3-0.2,0.5-0.5,0.6-0.9c0.2-0.4,0.3-0.8,0.4-1.2c0.2-0.9,0.3-1.8,0.4-2.8c0-0.9,0-2,0.1-2.9c0.2-2,0.3-3.9-0.2-5.7
				c-0.3-0.9-0.8-1.8-1.7-2.2C276.9,4.7,275.9,4.5,274.9,4.5z"/>
			<path class="st2" d="M273.6,22.5c1.4-0.3,2.9-0.6,3.8-1.5c0.5-0.4,0.7-0.9,0.9-1.5c0.1-0.3,0.3-0.6,0.4-0.9
				c0.1-0.3,0.2-0.6,0.2-0.9c0.2-1.3,0.2-2.7,0.2-4.2v-1.1l-0.1-1l-0.1-2.1l0,0.1c-0.1-0.5-0.2-1-0.4-1.4c-0.2-0.4-0.3-0.7-0.6-1
				c-0.3-0.3-0.7-0.6-0.9-0.7c-0.4-0.2-0.8-0.3-1.3-0.3c-0.2,0-0.4,0-0.7,0l-0.8,0h-1.6h-3.2l1-1v8.7v4.4l0,1.1c0,0.4,0,0.7,0,1.1
				l-0.3,2.2l-0.7-0.7C270.9,22.1,272.2,22.3,273.6,22.5L273.6,22.5L273.6,22.5z M273.6,22.5L273.6,22.5l0,0.1l0,0
				c-1.4,0.2-2.7,0.5-4.1,0.7l-0.6,0.1l-0.1-0.8l-0.3-2.2c-0.1-0.4,0-0.7,0-1.1l0-1.1v-4.4V5.1v-1h1h3.2h1.6l0.8,0
				c0.3,0,0.6,0,0.9,0.1c0.6,0.1,1.2,0.2,1.8,0.5c0.7,0.3,1.2,0.7,1.6,1.1c0.5,0.4,0.9,1.1,1.1,1.7c0.2,0.6,0.3,1.1,0.5,1.7l0,0.1
				l0,0l0.1,2.2l0.1,1.1v1.1c0,1.4,0.1,2.9-0.2,4.5c-0.1,0.4-0.2,0.8-0.3,1.2c-0.1,0.4-0.2,0.8-0.5,1.1c-0.4,0.7-1.2,1.4-1.9,1.7
				c-0.8,0.4-1.6,0.5-2.4,0.5C275.1,22.7,274.3,22.6,273.6,22.5z"/>
			<path class="st2" d="M274.9,43.1c1.3,0,2.7-0.5,3.4-1.5c0.2-0.2,0.3-0.5,0.4-0.8c0.1-0.3,0.2-0.6,0.3-0.9
				c0.2-0.6,0.2-1.2,0.4-1.8c0.3-1.2,0.3-2.5,0.3-3.8c0-1.3,0-2.7,0-4c-0.1-1.3-0.2-2.5-0.7-3.6c-0.4-1.1-1.1-1.8-2.2-2.2
				c-0.5-0.2-1.1-0.4-1.7-0.4c-0.6-0.1-1.2-0.1-1.9-0.1h-4l1-1v10v5c0,1.7,0.1,3.3-0.2,5l-0.8-0.8c0.9,0.2,1.9,0.4,2.8,0.5
				C273,43,274,43.1,274.9,43.1z M274.9,43.1c-0.9,0-1.9,0.1-2.8,0.2c-0.9,0.2-1.9,0.4-2.8,0.5l-0.6,0.1l-0.2-0.9
				c-0.4-1.7-0.2-3.3-0.2-5v-5v-10v-1h1h4c1.3,0,2.9,0,4.3,0.7c0.7,0.3,1.4,0.7,2,1.3c0.6,0.6,1,1.3,1.3,2c0.6,1.4,0.7,2.9,0.8,4.3
				c0,1.4,0,2.7,0,4c0,1.4-0.1,2.8-0.3,4.2c-0.1,0.7-0.5,1.4-0.8,2c-0.2,0.3-0.4,0.6-0.7,0.9c-0.3,0.3-0.6,0.5-0.9,0.8
				C277.6,43.1,276.2,43.1,274.9,43.1z"/>
		</g>
	</g>
	<g>
		<polygon class="st1" points="296.4,23.5 296.4,24.1 287.1,24.1 287.1,43.1 298.1,43.1 298.1,43.7 286.7,43.7 286.7,4.5 298.1,4.5 
			298.1,5 287.1,5 287.1,23.5 		"/>
		<path class="st2" d="M296.4,23.5l0,0.6l0,0l0,0c-3.1,0.2-6.2,0.4-9.3,0.6l0.6-0.6l0.2,4.7c0.1,1.6,0.2,3.2,0.2,4.7
			c0,1.6,0,3.2,0,4.7v4.7l-1-1h11h1v1v0.6v1h-1h-11.4h-1v-1V4.5v-1h1h11.4h1v1V5v1h-1h-11l1-1c0,3.1,0,6.2,0,9.2
			c0,1.5-0.2,3.1-0.2,4.6l-0.2,4.6l-0.5-0.5L296.4,23.5z M296.4,23.5c-3.3,0.1-6.3,0.4-9.3,0.5l-0.5,0l0-0.6l-0.2-4.6
			c-0.1-1.5-0.2-3.1-0.2-4.6c0-3.1,0-6.2,0-9.2l0-1h1h11l-1,1V4.5l1,1h-11.4l1-1v39.2l-1-1h11.4l-1,1v-0.6l1,1h-11h-1v-1v-4.7
			c0-1.6,0-3.2,0-4.7c0-1.6,0.1-3.2,0.2-4.7l0.2-4.7l0-0.6l0.6,0c3.1,0.2,6.2,0.4,9.3,0.6l0,0L296.4,23.5z"/>
	</g>
	<g>
		<path class="st1" d="M309.5,4.5c2.2,0,3.8,0.8,4.8,2.4c0.9,1.6,1.4,3.7,1.4,6.4v3.5c0,2.5-0.4,4.4-1.2,5.7
			c-0.8,1.4-2.1,2.2-3.9,2.5c1.8,0.3,3.1,1.1,3.9,2.5c0.8,1.3,1.2,3.1,1.2,5.3V39c0,0.7,0,1.6,0.2,2.4c0.1,0.9,0.3,1.6,0.7,2.2H316
			c-0.3-0.6-0.5-1.4-0.6-2.2c-0.1-0.9-0.2-1.7-0.2-2.4v-6.2c0-1.5-0.2-2.7-0.5-3.7s-0.8-1.8-1.5-2.3c-0.6-0.6-1.4-1-2.3-1.2
			s-1.8-0.3-2.9-0.3h-4v18.4h-0.4V4.5H309.5z M308,24.7c1.1,0,2.1-0.1,3-0.3c0.9-0.2,1.6-0.6,2.3-1.2c0.6-0.6,1.1-1.4,1.4-2.4
			s0.5-2.4,0.5-4v-3.5c0-2.5-0.4-4.5-1.3-6s-2.3-2.2-4.5-2.2H304v19.7h4V24.7z"/>
		<g>
			<path class="st2" d="M309.5,4.5c1.1,0,2.2,0.2,3.2,0.7c1,0.5,1.8,1.4,2.2,2.5c1,2,1.4,4.4,1.5,6.6c0.1,1.1,0.2,2.2,0.2,3.3
				c0,1.2-0.1,2.3-0.5,3.5c-0.4,1.2-0.9,2.3-1.9,3.3c-1,0.9-2.3,1.4-3.5,1.6v-2c0.9,0.1,1.8,0.4,2.6,0.9c0.8,0.5,1.5,1.2,2,2
				c1,1.6,1.3,3.3,1.4,5c0,1.7,0,3.2,0,4.8l0,2.4c0,0.8,0,1.5,0.2,2.1l0,0.1l0,0.1c0.1,0.7,0.2,1.3,0.5,1.8l1.1,1.6h-1.9H316h-0.6
				l-0.3-0.6c-0.4-0.8-0.6-1.6-0.7-2.4l-0.2-2.3c-0.1-1.5,0-2.9,0-4.4l0-2.2c0-0.7,0-1.4-0.1-2c-0.2-1.3-0.6-2.6-1.4-3.2l-0.1,0
				l-0.1-0.1c-0.4-0.4-1-0.7-1.6-0.9c-0.7-0.2-1.4-0.3-2.1-0.3c-0.7,0-1.6,0-2.3,0H304l1-1v18.4v1h-1h-0.4h-1v-1V24.1v-4.9l0-2.4
				c0-0.8,0.1-1.6,0.1-2.4c0.2-3.3,0.5-6.5,0.7-9.8l0-0.2l0.2,0C305.6,4.5,307.5,4.5,309.5,4.5z M309.5,4.5c-2,0-3.9,0-5.9,0.2
				l0.2-0.2c0.2,3.3,0.5,6.5,0.7,9.8c0,0.8,0.1,1.6,0.1,2.4l0,2.4v4.9v19.6l-1-1h0.4l-1,1V25.3v-1h1h2.4c0.8,0,1.6,0,2.4,0
				c0.9,0,1.7,0.2,2.6,0.4c0.9,0.2,1.8,0.7,2.5,1.4l-0.1-0.1c0.8,0.6,1.3,1.4,1.6,2.1c0.3,0.8,0.5,1.5,0.6,2.3
				c0.1,0.8,0.2,1.6,0.2,2.3l0,2.2c0,1.4,0,2.9,0,4.3l0.2,2.1c0.1,0.6,0.2,1.3,0.5,1.8l-0.9-0.6h0.6l-0.8,1.6
				c-0.6-0.8-0.8-1.8-0.9-2.6l0,0.1c-0.2-0.9-0.2-1.8-0.2-2.6l0-2.4c0-1.6,0-3.2,0-4.7c-0.1-1.5-0.4-2.9-1.1-4
				c-0.6-1.1-1.8-1.7-3.2-2l-5.9-1l5.9-1c1-0.2,1.8-0.5,2.5-1.1c0.6-0.6,1.1-1.4,1.3-2.4c0.3-0.9,0.4-2,0.5-3l0.2-3.3
				c0.2-2.2,0.3-4.3-0.4-6.4c-0.3-1-1-2-1.9-2.5C311.7,4.7,310.6,4.5,309.5,4.5z"/>
			<path class="st2" d="M308,24.7c0.9-0.2,1.9-0.4,2.7-0.7c0.9-0.3,1.5-0.8,2-1.4l0,0c0.3-0.4,0.5-0.8,0.7-1.3
				c0.2-0.4,0.4-0.9,0.5-1.4c0.2-1,0.3-2.1,0.3-3.2l0-3.4c0-1.1-0.1-2.2-0.3-3.2c-0.2-1-0.6-2-1.1-2.7c-0.5-0.7-1.3-1.1-2.2-1.3
				c-0.5-0.1-0.9-0.1-1.5-0.1h-1.7H304l1-1V15v4.9c0,0.8,0.1,1.6-0.1,2.5l-0.3,2.5l-0.6-0.6C305.3,24.4,306.7,24.6,308,24.7
				L308,24.7L308,24.7z M308,24.7L308,24.7l0,0.1l0,0c-1.3,0.2-2.7,0.4-4,0.6l-0.5,0.1l-0.1-0.7l-0.3-2.5c-0.2-0.8,0-1.6-0.1-2.5V15
				V5.1v-1h1h3.4h1.7c0.6,0,1.2,0,1.9,0.1c0.6,0.1,1.3,0.3,1.9,0.7c0.6,0.4,1.1,0.9,1.5,1.4c0.8,1.1,1.2,2.3,1.4,3.5
				c0.2,1.2,0.3,2.4,0.3,3.6l0,3.4c0,1.2-0.1,2.4-0.4,3.6c-0.1,0.6-0.3,1.2-0.6,1.8c-0.3,0.6-0.8,1.1-1.3,1.5l0,0
				c-0.4,0.3-0.9,0.6-1.4,0.7c-0.5,0.2-1,0.3-1.5,0.3C309.9,24.9,308.9,24.9,308,24.7z"/>
		</g>
	</g>
</g>
</svg>
